<svg width="429" height="301" viewBox="0 0 429 301" fill="none" xmlns="http://www.w3.org/2000/svg">
<path d="M226.095 256.366C123.218 275.794 50.1832 239.713 0.708008 162.001V1.02695H428.708V300.772C395.463 279.494 308.397 240.823 226.095 256.366Z" fill="#8332A6" fill-opacity="0.4"/>
<path d="M235.5 256.064C145.113 269.217 111.792 280.063 1 246.113V0.772461H429V256.064C354.5 232.75 336 241.439 235.5 256.064Z" fill="#8332A6" fill-opacity="0.4"/>
<path d="M140 273.974C65.7352 278.091 25.5 257.617 0.708008 219.682V1.02695H428.708V277.644C379.5 229.079 196.5 270.842 140 273.974Z" fill="#8332A6" fill-opacity="0.4"/>
<path d="M178.668 238.759C51.0054 238.759 39.974 146.98 0.708008 73.8934V1.02695H428.708V277.644C325.81 151.909 262.697 238.759 178.668 238.759Z" fill="#8332A6" fill-opacity="0.4"/>
<path d="M236.78 155.474C149.416 118.459 124.701 241.057 0.708008 278.904V1.02695H428.708V126.275C357.331 308.105 261.17 165.808 236.78 155.474Z" fill="#8332A6" fill-opacity="0.4"/>
<path d="M211.5 191.975C124.136 154.961 124.701 177.174 0.708008 215.021V1.02695H428.708V183.484C293.5 286.991 235.89 202.309 211.5 191.975Z" fill="#8332A6" fill-opacity="0.4"/>
</svg>
